<svg width="251" height="43" viewBox="0 0 251 43" fill="none" preserveAspectRatio="xMidYMid" xmlns="http://www.w3.org/2000/svg">
<path fill-rule="evenodd" clip-rule="evenodd" d="M243.483 42.4028C240.923 42.4028 238.719 41.9959 236.872 41.1822C235.024 40.3685 233.607 39.0932 232.623 37.3562C231.638 35.6193 231.146 33.3798 231.146 30.6375V19.1783H226.465C226.043 19.1783 225.689 19.034 225.401 18.7453C225.113 18.4567 224.969 18.1008 224.969 17.6778V12.8477C224.969 12.4247 225.113 12.0689 225.401 11.7802C225.689 11.4915 226.043 11.3472 226.465 11.3472H231.146V1.50052C231.146 1.07749 231.289 0.721645 231.577 0.432988C231.865 0.144327 232.22 0 232.641 0H239.532C239.953 0 240.308 0.144327 240.596 0.432988C240.884 0.721645 241.027 1.07749 241.027 1.50052V11.3472H248.483C248.905 11.3472 249.26 11.4915 249.548 11.7802C249.835 12.0689 249.979 12.4247 249.979 12.8477V17.6778C249.979 18.1008 249.835 18.4567 249.548 18.7453C249.26 19.034 248.905 19.1783 248.483 19.1783H241.027V29.8014C241.027 31.165 241.288 32.2388 241.809 33.0227C242.33 33.8065 243.198 34.1984 244.413 34.1984H249.004C249.426 34.1984 249.781 34.3428 250.068 34.6314C250.356 34.9201 250.5 35.2759 250.5 35.699V40.9023C250.5 41.3253 250.356 41.6811 250.068 41.9698C249.781 42.2584 249.426 42.4028 249.004 42.4028H243.483ZM144.263 42.4028C143.841 42.4028 143.486 42.2584 143.199 41.9698C142.911 41.6811 142.767 41.3253 142.767 40.9023V2.12014C142.767 1.68218 142.911 1.31887 143.199 1.03021C143.486 0.74155 143.841 0.597223 144.263 0.597223H162.442C165.864 0.597223 168.664 1.07624 170.839 2.03429C173.014 2.99234 174.624 4.35225 175.668 6.11406C176.712 7.87588 177.235 9.98604 177.235 12.4446C177.235 13.8829 176.967 15.147 176.431 16.237C175.895 17.3269 175.245 18.2252 174.481 18.9319C173.717 19.6387 172.988 20.1662 172.294 20.5146C173.831 21.2113 175.184 22.3797 176.353 24.0195C177.521 25.6594 178.105 27.5717 178.105 29.7566C178.105 32.3695 177.521 34.619 176.353 36.5052C175.184 38.3914 173.479 39.8459 171.237 40.8687C168.995 41.8914 166.239 42.4028 162.97 42.4028H144.263ZM153.475 34.6389H161.779C163.501 34.6389 164.793 34.1424 165.656 33.1496C166.519 32.1567 166.951 31.0133 166.951 29.7193C166.951 28.3606 166.507 27.201 165.619 26.2404C164.731 25.2799 163.451 24.7997 161.779 24.7997H153.475V34.6389ZM153.475 17.2224H161.221C162.868 17.2224 164.096 16.7956 164.905 15.9421C165.713 15.0886 166.117 14.0223 166.117 12.7432C166.117 11.4642 165.713 10.4141 164.905 9.59288C164.096 8.7717 162.868 8.36111 161.221 8.36111H153.475V17.2224ZM123.123 43C120.563 43 118.378 42.7151 116.567 42.1452C114.756 41.5754 113.282 40.8649 112.143 40.0139C111.005 39.1628 110.164 38.2907 109.621 37.3973C109.077 36.504 108.786 35.7338 108.746 35.0868C108.707 34.6488 108.839 34.2893 109.144 34.0081C109.449 33.7269 109.778 33.5863 110.13 33.5863H116.939C117.053 33.5863 117.156 33.6012 117.248 33.6311C117.34 33.6609 117.45 33.743 117.579 33.8774C118.095 34.1561 118.61 34.5045 119.123 34.9226C119.636 35.3406 120.233 35.7039 120.913 36.0125C121.592 36.3211 122.416 36.4753 123.383 36.4753C124.474 36.4753 125.403 36.2539 126.17 35.8109C126.936 35.368 127.319 34.7235 127.319 33.8774C127.319 33.2354 127.136 32.7004 126.769 32.2724C126.402 31.8444 125.676 31.44 124.592 31.0593C123.508 30.6786 121.877 30.2717 119.7 29.8387C117.621 29.3908 115.812 28.7737 114.271 27.9873C112.731 27.201 111.543 26.1795 110.707 24.9228C109.871 23.6662 109.453 22.152 109.453 20.3802C109.453 18.7876 109.962 17.256 110.979 15.7853C111.996 14.3147 113.499 13.1078 115.488 12.1647C117.477 11.2215 119.935 10.75 122.862 10.75C125.129 10.75 127.115 11.0212 128.819 11.5637C130.523 12.1062 131.954 12.7893 133.112 13.6129C134.271 14.4366 135.151 15.2939 135.754 16.1847C136.357 17.0756 136.678 17.8644 136.718 18.5512C136.757 18.9742 136.638 19.3301 136.36 19.6187C136.083 19.9074 135.765 20.0517 135.408 20.0517H129.195C129.026 20.0517 128.867 20.0256 128.718 19.9734C128.569 19.9211 128.441 19.8502 128.331 19.7606C127.835 19.5217 127.347 19.2044 126.865 18.8088C126.384 18.4131 125.832 18.0585 125.21 17.745C124.587 17.4314 123.792 17.2747 122.825 17.2747C121.758 17.2747 120.929 17.5135 120.336 17.9913C119.743 18.4691 119.447 19.0788 119.447 19.8203C119.447 20.3479 119.61 20.8281 119.938 21.2611C120.265 21.6941 120.96 22.0922 122.021 22.4556C123.083 22.8189 124.727 23.212 126.955 23.6351C129.693 24.0929 131.871 24.8108 133.488 25.7888C135.105 26.7668 136.259 27.9002 136.948 29.1892C137.638 30.4782 137.983 31.8294 137.983 33.2429C137.983 35.159 137.412 36.8561 136.271 38.3342C135.13 39.8123 133.453 40.9595 131.241 41.7757C129.028 42.5919 126.322 43 123.123 43ZM90.7015 43C87.7746 43 85.1777 42.465 82.9106 41.395C80.6436 40.3249 78.849 38.7672 77.527 36.7217C76.2049 34.6762 75.4794 32.2027 75.3504 29.3012C75.3108 28.6791 75.2909 27.8828 75.2909 26.9123C75.2909 25.9418 75.3108 25.1331 75.3504 24.4861C75.4794 21.5697 76.1987 19.0862 77.5084 17.0358C78.818 14.9853 80.6126 13.4251 82.892 12.355C85.1715 11.285 87.7746 10.75 90.7015 10.75C93.4498 10.75 95.7987 11.1382 97.7483 11.9146C99.6979 12.691 101.287 13.659 102.514 14.8186C103.742 15.9782 104.657 17.1652 105.26 18.3795C105.863 19.5939 106.184 20.6514 106.224 21.5523C106.263 21.9753 106.126 22.3311 105.811 22.6198C105.496 22.9084 105.135 23.0528 104.728 23.0528H97.1604C96.7387 23.0528 96.4138 22.9508 96.1856 22.7467C95.9574 22.5426 95.7441 22.2391 95.5457 21.8359C95.0595 20.6365 94.4519 19.7693 93.7226 19.2343C92.9934 18.6993 92.0484 18.4318 90.8875 18.4318C89.305 18.4318 88.0835 18.9531 87.2228 19.9957C86.3621 21.0384 85.897 22.6347 85.8276 24.7847C85.773 26.3773 85.773 27.7833 85.8276 29.0026C85.9218 31.2024 86.3931 32.8049 87.2414 33.8102C88.0897 34.8156 89.305 35.3182 90.8875 35.3182C92.1228 35.3182 93.0926 35.0507 93.797 34.5157C94.5015 33.9807 95.0843 33.1135 95.5457 31.9141C95.7193 31.5109 95.9264 31.2073 96.167 31.0033C96.4076 30.7992 96.7387 30.6972 97.1604 30.6972H104.728C105.135 30.6972 105.496 30.8415 105.811 31.1302C106.126 31.4189 106.263 31.7747 106.224 32.1977C106.184 32.8497 105.987 33.6323 105.632 34.5456C105.277 35.4588 104.723 36.4082 103.969 37.3936C103.215 38.379 102.238 39.296 101.037 40.1445C99.8367 40.9931 98.3795 41.6811 96.6656 42.2087C94.9516 42.7362 92.9636 43 90.7015 43ZM55.9811 43C52.6277 43 49.8087 42.465 47.5243 41.395C45.2399 40.3249 43.4924 38.7796 42.282 36.759C41.0716 34.7384 40.3895 32.3421 40.2357 29.57C40.196 28.7737 40.1762 27.8691 40.1762 26.8563C40.1762 25.8435 40.196 24.9514 40.2357 24.18C40.3895 21.3681 41.1026 18.9618 42.375 16.9611C43.6475 14.9604 45.4259 13.4251 47.7103 12.355C49.9948 11.285 52.7517 10.75 55.9811 10.75C59.2106 10.75 61.9675 11.285 64.252 12.355C66.5364 13.4251 68.3148 14.9604 69.5873 16.9611C70.8597 18.9618 71.5728 21.3681 71.7266 24.18C71.7911 24.9514 71.8233 25.8435 71.8233 26.8563C71.8233 27.8691 71.7911 28.7737 71.7266 29.57C71.5728 32.3421 70.8907 34.7384 69.6803 36.759C68.4699 38.7796 66.7224 40.3249 64.438 41.395C62.1536 42.465 59.3346 43 55.9811 43ZM55.9811 35.7288C57.7422 35.7288 59.037 35.1876 59.8654 34.1051C60.6939 33.0227 61.1552 31.4114 61.2495 29.2714C61.2892 28.6741 61.309 27.8753 61.309 26.875C61.309 25.8746 61.2892 25.0759 61.2495 24.4786C61.1552 22.3734 60.6939 20.7709 59.8654 19.671C59.037 18.5711 57.7422 18.0212 55.9811 18.0212C54.2449 18.0212 52.9563 18.5711 52.1155 19.671C51.2746 20.7709 50.8071 22.3734 50.7128 24.4786C50.6731 25.0759 50.6533 25.8746 50.6533 26.875C50.6533 27.8753 50.6731 28.6741 50.7128 29.2714C50.8071 31.4114 51.2746 33.0227 52.1155 34.1051C52.9563 35.1876 54.2449 35.7288 55.9811 35.7288ZM1.99567 42.4028C1.574 42.4028 1.21931 42.2584 0.931586 41.9698C0.643861 41.6811 0.5 41.3253 0.5 40.9023V2.12014C0.5 1.68218 0.643861 1.31887 0.931586 1.03021C1.21931 0.74155 1.574 0.597223 1.99567 0.597223H17.4658C21.3749 0.597223 24.6936 1.22057 27.422 2.46728C30.1505 3.71398 32.2563 5.54793 33.7396 7.96918C35.2229 10.3904 36.0091 13.3703 36.0984 16.9089C36.1629 18.6508 36.1952 20.1836 36.1952 21.5075C36.1952 22.8313 36.1629 24.3393 36.0984 26.0314C35.9694 29.7442 35.198 32.8136 33.7842 35.2398C32.3704 37.6661 30.3253 39.4664 27.649 40.641C24.9727 41.8155 21.6775 42.4028 17.7634 42.4028H1.99567ZM11.2078 33.7804H17.4658C19.2021 33.7804 20.6332 33.5141 21.7593 32.9816C22.8854 32.4491 23.7374 31.6043 24.3154 30.4471C24.8933 29.29 25.2021 27.7808 25.2418 25.9194C25.3063 24.7499 25.3447 23.711 25.3571 22.8027C25.3695 21.8944 25.3695 20.9837 25.3571 20.0704C25.3447 19.1571 25.3063 18.1406 25.2418 17.0208C25.1624 14.3333 24.4543 12.3613 23.1173 11.1046C21.7804 9.84794 19.7974 9.21962 17.1682 9.21962H11.2078V33.7804Z" fill="black"/>
<path d="M203.002 3.36762C204.191 3.36762 205.151 4.45969 205.151 5.8114V10.699H213.211C215.884 10.699 218.047 13.158 218.047 16.1974V36.9695C218.047 40.009 215.884 42.468 213.211 42.468H192.793C190.12 42.468 187.957 40.009 187.957 36.9695V16.1974C187.957 13.158 190.12 10.699 192.793 10.699H200.853V5.8114C200.853 4.45969 201.813 3.36762 203.002 3.36762ZM195.479 32.6929C194.888 32.6929 194.405 33.2428 194.405 33.9148C194.405 34.5869 194.888 35.1367 195.479 35.1367H197.629C198.22 35.1367 198.703 34.5869 198.703 33.9148C198.703 33.2428 198.22 32.6929 197.629 32.6929H195.479ZM201.927 33.9867C201.336 33.9867 200.853 34.5365 200.853 35.2086C200.853 35.8806 201.336 36.4305 201.927 36.4305H204.077C204.668 36.4305 205.151 35.8806 205.151 35.2086C205.151 34.5365 204.668 33.9867 204.077 33.9867H201.927ZM208.375 32.6929C207.784 32.6929 207.301 33.2428 207.301 33.9148C207.301 34.5869 207.784 35.1367 208.375 35.1367H210.525C211.116 35.1367 211.599 34.5869 211.599 33.9148C211.599 33.2428 211.116 32.6929 210.525 32.6929H208.375ZM199.993 22.9178C199.993 21.2308 198.468 19.8631 196.984 19.8631C195.5 19.8631 193.868 21.2308 193.868 22.9178C193.868 24.6049 195.5 25.9725 196.984 25.9725C198.468 25.9725 199.993 24.6049 199.993 22.9178ZM209.163 25.9725C210.647 25.9725 212.137 24.6049 212.137 22.9178C212.137 21.2308 210.647 19.8631 209.163 19.8631C207.68 19.8631 206.154 21.2308 206.154 22.9178C206.154 24.6049 207.68 25.9725 209.163 25.9725ZM184.733 20.4741H185.808V35.1367H184.733C182.953 35.1367 181.509 33.4948 181.509 31.471V24.1397C181.509 22.116 182.953 20.4741 184.733 20.4741ZM221.271 20.4741C223.051 20.4741 224.495 22.116 224.495 24.1397V31.471C224.495 33.4948 223.051 35.1367 221.271 35.1367H220.196V20.4741H221.271Z" fill="black"/>
</svg>
